xxxxxxxxxxxxxxxxxxxxxxxxx
# Blender v2.83.3 OBJ File: ''
# www.blender.org
mtllib test.mtl
o Monitor_01_Mesh
v -0.279000 -0.167500 0.006363
v -0.279000 0.167500 0.006363
v 0.279000 -0.167500 0.006363
v 0.279000 0.167500 0.006363
v 0.279000 -0.167500 -0.004318
v 0.279000 0.167500 -0.004318
v -0.279000 -0.167500 -0.004318
v -0.279000 0.167500 -0.004318
v -0.265400 -0.153900 0.006363
v -0.265400 0.153900 0.006363
v 0.265400 -0.153900 0.006363
v 0.265400 0.153900 0.006363
v -0.263600 -0.152100 0.004091
v -0.263600 0.152100 0.004091
v 0.263600 -0.152100 0.004091
v 0.263600 0.152100 0.004091
v 0.271200 -0.159700 -0.022380
v 0.271200 0.159700 -0.022380
v -0.271200 -0.159700 -0.022380
v -0.271200 0.159700 -0.022380
v 0.200900 -0.089400 -0.053500
v 0.200900 0.089400 -0.053499
v -0.200900 -0.089400 -0.053500
v -0.200900 0.089400 -0.053499
v 0.256991 -0.159700 -0.022380
v -0.256991 -0.159700 -0.022380
v 0.196450 -0.098636 -0.049411
v -0.196450 -0.098636 -0.049411
v -0.196450 -0.098636 -0.022380
v 0.196450 -0.098636 -0.022380
v 0.198900 -0.087400 -0.058309
v 0.198900 0.087400 -0.058309
v -0.198900 -0.087400 -0.058309
v -0.198900 0.087400 -0.058309
v -0.155534 -0.098636 -0.046669
v -0.187363 -0.098636 -0.046669
v -0.187363 -0.098636 -0.025122
v -0.155534 -0.098636 -0.025122
v -0.155534 -0.099736 -0.046669
v -0.187363 -0.099736 -0.046669
v -0.187363 -0.099736 -0.025122
v -0.155534 -0.099736 -0.025122
v -0.158108 -0.099736 -0.036485
v -0.184790 -0.099736 -0.036485
v -0.184790 -0.099736 -0.027696
v -0.158108 -0.099736 -0.027696
v -0.163594 -0.099736 -0.044095
v -0.179339 -0.099736 -0.044095
v -0.158108 -0.090350 -0.036485
v -0.184790 -0.090350 -0.036485
v -0.184790 -0.090350 -0.027696
v -0.158108 -0.090350 -0.027696
v -0.163594 -0.090350 -0.044095
v -0.179339 -0.090350 -0.044095
v -0.148683 -0.104582 -0.022739
v -0.058904 -0.104582 -0.022739
v -0.148683 -0.151602 -0.022739
v -0.058904 -0.151602 -0.022739
v -0.036025 -0.166078 0.006652
v 0.036025 -0.166078 0.006652
v -0.036025 -0.155003 0.006652
v 0.036025 -0.155003 0.006652
v -0.179088 -0.096222 -0.030138
v -0.179088 -0.090222 -0.030138
v -0.177722 -0.096222 -0.030138
v -0.177722 -0.090222 -0.030138
v -0.177722 -0.096222 -0.036138
v -0.177722 -0.090222 -0.036138
v -0.179088 -0.096222 -0.036138
v -0.179088 -0.090222 -0.036138
v -0.165646 -0.096222 -0.030138
v -0.165646 -0.090222 -0.030138
v -0.164280 -0.096222 -0.030138
v -0.164280 -0.090222 -0.030138
v -0.164280 -0.096222 -0.036138
v -0.164280 -0.090222 -0.036138
v -0.165646 -0.096222 -0.036138
v -0.165646 -0.090222 -0.036138
v -0.172439 -0.096222 -0.036896
v -0.172439 -0.090222 -0.036896
v -0.171073 -0.096222 -0.036896
v -0.171073 -0.090222 -0.036896
v -0.171073 -0.096222 -0.042896
v -0.171073 -0.090222 -0.042896
v -0.172439 -0.096222 -0.042896
v -0.172439 -0.090222 -0.042896
v 0.180210 -0.098964 -0.033268
v 0.164110 -0.098964 -0.033268
v 0.180210 -0.098964 -0.038028
v 0.164110 -0.098964 -0.038028
v -0.279133 -0.028821 -0.014835
v -0.279133 -0.021321 -0.014835
v -0.279133 -0.028821 -0.022335
v -0.279133 -0.021321 -0.022335
v -0.279133 0.022763 -0.014835
v -0.279133 0.037763 -0.014835
v -0.279133 0.022763 -0.022335
v -0.279133 0.037763 -0.022335
v -0.021192 -0.018535 -0.050309
v -0.021192 0.018535 -0.050309
v 0.021192 -0.018535 -0.050309
v 0.021192 0.018535 -0.050309
v -0.021192 0.007935 -0.075116
v -0.021192 -0.007935 -0.075116
v -0.021192 0.018535 -0.064516
v 0.021192 0.018535 -0.064516
v -0.021192 -0.018535 -0.064516
v 0.021192 -0.018535 -0.064516
v 0.021192 -0.007935 -0.075116
v 0.021192 0.007935 -0.075116
v 0.045112 -0.236245 -0.022745
v 0.000000 -0.236245 -0.048791
v -0.045112 -0.246224 -0.074837
v 0.052091 -0.236245 -0.048791
v 0.045112 -0.255245 -0.074837
v 0.045112 -0.236245 -0.074837
v 0.026046 -0.255245 -0.093904
v 0.026046 -0.236245 -0.093904
v 0.000000 -0.255245 -0.100883
v 0.000000 -0.236245 -0.100883
v -0.026046 -0.255245 -0.093904
v -0.026046 -0.236245 -0.093904
v -0.045112 -0.255245 -0.074837
v -0.045112 -0.236245 -0.074837
v -0.052091 -0.246224 -0.048791
v -0.052091 -0.236245 -0.048791
v -0.045112 -0.246224 -0.022745
v -0.045112 -0.236245 -0.022745
v -0.026046 -0.246224 -0.003679
v -0.026046 -0.236245 -0.003679
v -0.000000 -0.246224 0.003300
v -0.000000 -0.236245 0.003300
v 0.026046 -0.246224 -0.003679
v 0.026046 -0.236245 -0.003679
v 0.045112 -0.246224 -0.022745
v 0.052091 -0.246224 -0.048791
v 0.045112 -0.246224 -0.074837
v -0.037000 -0.127361 -0.076812
v -0.037000 0.136755 -0.092354
v 0.037000 -0.127361 -0.076812
v 0.037000 0.136755 -0.092354
v 0.037000 -0.127361 -0.085515
v 0.037000 0.136755 -0.101057
v -0.037000 -0.127361 -0.085515
v -0.037000 0.136755 -0.101057
v -0.037000 -0.180732 -0.063231
v 0.037000 -0.180732 -0.063231
v 0.037000 -0.180732 -0.075363
v -0.037000 -0.180732 -0.075363
v -0.037000 -0.236533 -0.036434
v 0.037000 -0.236533 -0.036434
v 0.037000 -0.236533 -0.057562
v -0.037000 -0.236533 -0.057562
v 0.015950 -0.127361 -0.097520
v 0.015950 0.136755 -0.113062
v -0.015950 -0.127361 -0.097520
v -0.015950 0.136755 -0.113062
v 0.015950 -0.180732 -0.087368
v -0.015950 -0.180732 -0.087368
v 0.015950 -0.236533 -0.069567
v -0.015950 -0.236533 -0.069567
v 0.037000 -0.180732 -0.071467
v 0.037000 -0.127361 -0.081620
v 0.037000 0.136755 -0.097162
v -0.037000 -0.127361 -0.081620
v -0.037000 0.136755 -0.097162
v 0.037000 -0.236533 -0.053473
v -0.037000 -0.236533 -0.053473
v -0.037000 -0.180732 -0.071467
v -0.137888 -0.255304 0.048061
v -0.137888 -0.245304 0.048061
v 0.137888 -0.255304 0.048061
v 0.137888 -0.245304 0.048061
v 0.098438 -0.255304 -0.073809
v 0.098438 -0.245304 -0.073809
v -0.098438 -0.255304 -0.073809
v -0.098438 -0.245304 -0.073809
v -0.278653 -0.048070 -0.004095
v -0.278653 0.048070 -0.004095
v -0.278653 -0.041052 -0.034464
v -0.278653 0.041052 -0.034464
v -0.242399 -0.048070 -0.034464
v -0.242399 0.041052 -0.034464
v -0.024941 -0.019111 -0.069984
v -0.024941 0.019111 -0.069984
v 0.024941 -0.019111 -0.069984
v 0.024941 0.019111 -0.069984
v 0.024941 -0.019111 -0.086338
v 0.024941 0.019111 -0.089008
v -0.024941 -0.019111 -0.086338
v -0.024941 0.019111 -0.089008
v 0.154309 -0.098964 -0.033268
v 0.138209 -0.098964 -0.033268
v 0.154309 -0.098964 -0.038028
v 0.138209 -0.098964 -0.038028
v 0.130602 -0.098964 -0.033268
v 0.114502 -0.098964 -0.033268
v 0.130602 -0.098964 -0.038028
v 0.114502 -0.098964 -0.038028
v 0.106101 -0.098964 -0.033268
v 0.090001 -0.098964 -0.033268
v 0.106101 -0.098964 -0.038028
v 0.090001 -0.098964 -0.038028
v -0.279133 0.002131 -0.014835
v -0.279133 0.017131 -0.014835
v -0.279133 0.002131 -0.022335
v -0.279133 0.017131 -0.022335
v -0.279133 -0.017376 -0.014835
v -0.279133 -0.002376 -0.014835
v -0.279133 -0.017376 -0.022335
v -0.279133 -0.002376 -0.022335
v -0.279133 -0.040197 -0.014835
v -0.279133 -0.032697 -0.014835
v -0.279133 -0.040197 -0.022335
v -0.279133 -0.032697 -0.022335
vt 0.643884 0.184420
vt 0.638209 0.206941
vt 0.626068 0.190122
vt 0.591254 0.190146
vt 0.579214 0.206981
vt 0.573509 0.184467
vt 0.478286 0.008588
vt 0.478286 0.282255
vt 0.004002 0.282255
vt 0.004002 0.008588
vt 0.532306 0.298999
vt 0.532306 0.603359
vt 0.522601 0.603359
vt 0.522601 0.298999
vt 0.490326 0.011572
vt 0.490507 0.168826
vt 0.848376 0.168415
vt 0.848196 0.011161
vt 0.015636 0.298999
vt 0.015636 0.603359
vt 0.005931 0.603359
vt 0.005931 0.298999
vt 0.522601 0.613063
vt 0.015636 0.613063
vt 0.522601 0.289295
vt 0.015636 0.289295
vt 0.510245 0.311355
vt 0.027992 0.311355
vt 0.510245 0.591003
vt 0.027992 0.591003
vt 0.508111 0.313486
vt 0.030122 0.313490
vt 0.508115 0.588868
vt 0.030127 0.588871
vt 0.016968 0.660616
vt 0.024218 0.678903
vt 0.037425 0.678903
vt 0.005931 0.983031
vt 0.024218 0.975781
vt 0.005931 0.671653
vt 0.535623 0.994069
vt 0.528373 0.975781
vt 0.016968 0.994067
vt 0.546660 0.671653
vt 0.528373 0.678903
vt 0.546660 0.983031
vt 0.515166 0.678903
vt 0.535623 0.660616
vt 0.089561 0.910438
vt 0.089561 0.744246
vt 0.463030 0.910438
vt 0.463030 0.744246
vt 0.043826 0.638933
vt 0.506216 0.638932
vt 0.526015 0.621233
vt 0.024025 0.621233
vt 0.093395 0.735033
vt 0.459192 0.735031
vt 0.506775 0.262126
vt 0.543028 0.249981
vt 0.526207 0.262118
vt 0.098290 0.693868
vt 0.451752 0.693866
vt 0.081021 0.710990
vt 0.469021 0.710988
vt 0.488521 0.006887
vt 0.849990 0.006471
vt 0.485823 0.170630
vt 0.485638 0.009778
vt 0.850181 0.173099
vt 0.488712 0.173515
vt 0.852880 0.009356
vt 0.853064 0.170209
vt 0.451752 0.718184
vt 0.135108 0.715720
vt 0.106467 0.715722
vt 0.098292 0.718190
vt 0.135108 0.696337
vt 0.106466 0.696335
vt 0.643883 0.181988
vt 0.573507 0.182035
vt 0.646349 0.232058
vt 0.643916 0.232060
vt 0.646316 0.184418
vt 0.573541 0.234539
vt 0.573540 0.232107
vt 0.643918 0.234492
vt 0.571076 0.184469
vt 0.571108 0.232109
vt 0.579227 0.226413
vt 0.638222 0.226373
vt 0.506749 0.203132
vt 0.543013 0.215167
vt 0.526181 0.203124
vt 0.506784 0.282879
vt 0.526216 0.282870
vt 0.538350 0.278947
vt 0.555171 0.266810
vt 0.485996 0.203141
vt 0.486022 0.262135
vt 0.563781 0.249972
vt 0.563766 0.215158
vt 0.555089 0.198289
vt 0.538257 0.186246
vt 0.526172 0.182371
vt 0.506740 0.182380
vt 0.113377 0.819710
vt 0.113377 0.805582
vt 0.110161 0.805582
vt 0.110161 0.819710
vt 0.113377 0.833837
vt 0.127505 0.833837
vt 0.127505 0.819710
vt 0.110161 0.833837
vt 0.110161 0.847965
vt 0.113377 0.847965
vt 0.096033 0.819710
vt 0.096033 0.833837
vt 0.112891 0.773611
vt 0.112891 0.759484
vt 0.109674 0.759484
vt 0.109674 0.773611
vt 0.112891 0.787739
vt 0.127018 0.787739
vt 0.127018 0.773611
vt 0.109674 0.787739
vt 0.109674 0.801866
vt 0.112891 0.801866
vt 0.095547 0.773611
vt 0.095547 0.787739
vt 0.113417 0.865282
vt 0.113417 0.851154
vt 0.110201 0.851154
vt 0.110201 0.865282
vt 0.113417 0.879409
vt 0.127544 0.879409
vt 0.127544 0.865282
vt 0.110201 0.879409
vt 0.110201 0.893537
vt 0.113417 0.893537
vt 0.096073 0.865282
vt 0.096073 0.879409
vt 0.913503 0.908864
vt 0.913503 0.881573
vt 0.836340 0.881573
vt 0.836340 0.908864
vt 0.836340 0.937756
vt 0.913503 0.937756
vt 0.913503 0.965047
vt 0.836340 0.965047
vt 0.932800 0.889567
vt 0.932800 0.957054
vt 0.958665 0.957054
vt 0.958665 0.889567
vt 0.913503 0.990911
vt 0.836340 0.990911
vt 0.913503 0.855709
vt 0.836340 0.855709
vt 0.817043 0.889567
vt 0.791179 0.889567
vt 0.791179 0.957054
vt 0.817043 0.957054
vt 0.886557 0.189047
vt 0.886592 0.197567
vt 0.863570 0.197662
vt 0.863534 0.189142
vt 0.909547 0.181248
vt 0.909615 0.197471
vt 0.937170 0.057191
vt 0.905719 0.088642
vt 0.917231 0.045680
vt 0.862756 0.077131
vt 0.862756 0.100154
vt 0.932571 0.181152
vt 0.932639 0.197375
vt 0.948682 0.077131
vt 0.679323 0.182194
vt 0.679389 0.198420
vt 0.656363 0.198513
vt 0.656297 0.182288
vt 0.702381 0.189804
vt 0.702415 0.198326
vt 0.948682 0.100154
vt 0.874268 0.057191
vt 0.725405 0.189711
vt 0.725440 0.198232
vt 0.937170 0.120093
vt 0.748428 0.189617
vt 0.748463 0.198138
vt 0.771450 0.189523
vt 0.771485 0.198043
vt 0.917231 0.131605
vt 0.894207 0.045680
vt 0.794471 0.189428
vt 0.794506 0.197948
vt 0.894207 0.131605
vt 0.817492 0.189333
vt 0.817527 0.197853
vt 0.840513 0.189238
vt 0.840548 0.197758
vt 0.874268 0.120093
vt 0.886524 0.181344
vt 0.702350 0.182101
vt 0.863531 0.012364
vt 0.879812 0.028644
vt 0.924290 0.028644
vt 0.940570 0.012364
vt 0.902051 0.034603
vt 0.651619 0.663567
vt 0.651619 0.984574
vt 0.561680 0.984574
vt 0.561680 0.663567
vt 0.771531 0.653712
vt 0.742164 0.655535
vt 0.742164 0.975857
vt 0.771579 0.975001
vt 0.703476 0.655535
vt 0.703476 0.975857
vt 0.651619 0.596633
vt 0.661320 0.599101
vt 0.657282 0.665008
vt 0.657442 0.663910
vt 0.657442 0.984916
vt 0.767694 0.990416
vt 0.677946 0.990416
vt 0.742110 0.590044
vt 0.703531 0.590044
vt 0.651619 0.990416
vt 0.561680 0.990416
vt 0.561680 0.596633
vt 0.674110 0.653712
vt 0.674166 0.586553
vt 0.742434 0.518610
vt 0.703207 0.518610
vt 0.674061 0.975001
vt 0.561680 0.521397
vt 0.651620 0.521397
vt 0.556017 0.665008
vt 0.551979 0.599101
vt 0.555857 0.984916
vt 0.555857 0.663910
vt 0.772008 0.514329
vt 0.771475 0.586553
vt 0.670288 0.530362
vt 0.660643 0.600966
vt 0.552656 0.600966
vt 0.543012 0.530362
vt 0.673633 0.514329
vt 0.992563 0.460539
vt 0.987891 0.460261
vt 0.988030 0.142284
vt 0.992703 0.142560
vt 0.992636 0.860852
vt 0.987968 0.861133
vt 0.987481 0.543390
vt 0.992151 0.543106
vt 0.570872 0.243909
vt 0.570851 0.239230
vt 0.659749 0.238792
vt 0.659774 0.243472
vt 0.966958 0.993598
vt 0.962062 0.993889
vt 0.979634 0.925803
vt 0.984300 0.925524
vt 0.979622 0.077550
vt 0.984294 0.077824
vt 0.961962 0.009380
vt 0.966865 0.009667
vt 0.800727 0.376189
vt 0.800727 0.385410
vt 0.546431 0.385410
vt 0.546431 0.376189
vt 0.773122 0.500627
vt 0.764350 0.497788
vt 0.809500 0.388250
vt 0.582808 0.507009
vt 0.582808 0.497788
vt 0.764350 0.507009
vt 0.537658 0.388250
vt 0.574035 0.500627
vt 0.774927 0.369841
vt 0.811304 0.257463
vt 0.557007 0.257463
vt 0.593385 0.369841
vt 0.778682 0.230566
vt 0.756107 0.201937
vt 0.750697 0.225349
vt 0.681992 0.201937
vt 0.660171 0.231642
vt 0.687402 0.225349
vt 0.687402 0.253297
vt 0.756107 0.253297
vt 0.933511 0.725369
vt 0.933511 0.806699
vt 0.827370 0.806699
vt 0.827370 0.725369
vt 0.968310 0.725369
vt 0.973990 0.806699
vt 0.933511 0.690570
vt 0.827370 0.690570
vt 0.786890 0.806699
vt 0.792571 0.725369
vt 0.933511 0.847179
vt 0.827370 0.847179
vt 0.017440 0.515986
vt 0.017440 0.013477
vt 0.976912 0.013477
vt 0.976912 0.515986
vt 0.985182 0.841359
vt 0.985182 0.990898
vt 0.012325 0.990898
vt 0.012325 0.841359
vt 0.458440 0.595742
vt 0.458440 0.829583
vt 0.389304 0.829583
vt 0.389304 0.595742
vt 0.148892 0.597706
vt 0.148892 0.826927
vt 0.378112 0.826927
vt 0.378112 0.597706
vt 0.013033 0.598400
vt 0.013033 0.827326
vt 0.127496 0.827326
vt 0.127496 0.598400
vt 0.458440 0.595742
vt 0.458440 0.829583
vt 0.389304 0.829583
vt 0.389304 0.595742
vt 0.458440 0.595742
vt 0.458440 0.829583
vt 0.389304 0.829583
vt 0.389304 0.595742
vt 0.458440 0.595742
vt 0.458440 0.829583
vt 0.389304 0.829583
vt 0.389304 0.595742
vt 0.013033 0.598400
vt 0.013033 0.827326
vt 0.127496 0.827326
vt 0.127496 0.598400
vt 0.013033 0.598400
vt 0.013033 0.827326
vt 0.127496 0.827326
vt 0.127496 0.598400
vt 0.148892 0.597706
vt 0.148892 0.826927
vt 0.378112 0.826927
vt 0.378112 0.597706
vn 0.0000 -1.0000 -0.0000
vn 0.0000 -0.0000 1.0000
vn 1.0000 -0.0000 0.0000
vn 0.0000 0.0000 -1.0000
vn -1.0000 0.0000 0.0000
vn 0.0000 1.0000 0.0000
vn 0.0000 0.7838 0.6210
vn -0.7838 -0.0000 0.6210
vn 0.0000 -0.7838 0.6210
vn 0.7838 -0.0000 0.6210
vn 0.0000 -0.9181 -0.3965
vn -0.9181 0.0000 -0.3965
vn 0.0000 0.9181 -0.3965
vn 0.9181 0.0000 -0.3965
vn -0.4048 0.0000 -0.9144
vn 0.0000 0.4048 -0.9144
vn 0.4048 0.0000 -0.9144
vn 0.0000 -0.4048 -0.9144
vn 0.7101 -0.7041 0.0000
vn -0.7101 -0.7041 0.0000
vn 0.0000 -0.9234 -0.3840
vn -0.9233 0.0000 -0.3840
vn 0.0000 0.9233 -0.3840
vn 0.9233 0.0000 -0.3840
vn -0.9516 0.0000 0.3072
vn -0.4557 0.0000 0.8902
vn 0.4570 0.0000 0.8895
vn 0.9521 0.0000 0.3058
vn 0.0000 -0.7071 -0.7071
vn 0.0000 0.7071 -0.7071
vn 0.8181 0.0000 -0.5751
vn 0.8660 0.0000 -0.5000
vn 0.5751 -0.0000 -0.8181
vn 0.5000 0.0000 -0.8660
vn -0.5751 0.0000 -0.8181
vn -0.5000 0.0000 -0.8660
vn -0.8181 0.0000 -0.5751
vn -0.8660 0.0000 -0.5000
vn -0.8660 0.0000 0.5000
vn -0.5000 -0.0000 0.8660
vn 0.5000 -0.0000 0.8660
vn 0.8660 -0.0000 0.5000
vn 0.7071 0.0000 -0.7071
vn -0.7071 0.0000 -0.7071
vn 0.0000 0.1534 0.9882
vn 0.0000 0.0587 0.9983
vn 0.4925 -0.1072 -0.8637
vn 0.2547 -0.1191 -0.9597
vn 0.2559 -0.0568 -0.9650
vn 0.4948 -0.0511 -0.8675
vn -0.2547 -0.1191 -0.9597
vn -0.2559 -0.0568 -0.9650
vn 0.2499 -0.2381 -0.9385
vn -0.2499 -0.2381 -0.9385
vn 0.0000 0.3414 0.9399
vn -0.4925 -0.1072 -0.8637
vn -0.4838 -0.2153 -0.8483
vn 0.2463 -0.2946 -0.9233
vn -0.2463 -0.2946 -0.9233
vn -0.4948 -0.0511 -0.8675
vn 0.0000 0.4329 0.9014
vn 0.4774 -0.2670 -0.8371
vn 0.4838 -0.2153 -0.8483
vn -0.4774 -0.2670 -0.8371
vn 0.9514 0.0000 -0.3080
vn -0.9514 0.0000 -0.3080
vn -0.1853 -0.9574 -0.2213
vn 0.0000 0.9743 -0.2252
usemtl Monitor_01
s 1
f 39/1/1 43/2/1 47/3/1 48/4/1 44/5/1 40/6/1
f 15/7/2 16/8/2 14/9/2 13/10/2
f 5/11/3 6/12/3 4/13/3 3/14/3
f 33/15/4 34/16/4 32/17/4 31/18/4
f 1/19/5 2/20/5 8/21/5 7/22/5
f 4/13/6 6/23/6 8/24/6 2/20/6
f 5/25/1 3/14/1 1/19/1 7/26/1
f 3/14/2 11/27/2 9/28/2 1/19/2
f 4/13/2 12/29/2 11/27/2 3/14/2
f 2/20/2 10/30/2 12/29/2 4/13/2
f 1/19/2 9/28/2 10/30/2 2/20/2
f 11/27/7 15/31/7 13/32/7 9/28/7
f 12/29/8 16/33/8 15/31/8 11/27/8
f 10/30/9 14/34/9 16/33/9 12/29/9
f 9/28/10 13/32/10 14/34/10 10/30/10
f 7/35/11 19/36/11 26/37/11
f 8/38/12 20/39/12 19/36/12 7/40/12
f 6/41/13 18/42/13 20/39/13 8/43/13
f 5/44/14 17/45/14 18/42/14 6/46/14
f 25/47/11 17/45/11 5/48/11
f 20/39/15 24/49/15 23/50/15 19/36/15
f 18/42/16 22/51/16 24/49/16 20/39/16
f 17/45/17 21/52/17 22/51/17 18/42/17
f 26/53/11 25/54/11 5/55/11 7/56/11
f 23/50/18 28/57/18 26/37/18 19/36/18
f 21/52/18 27/58/18 28/57/18 23/50/18
f 17/45/18 25/47/18 27/58/18 21/52/18
f 52/59/1 53/60/1 49/61/1
f 25/54/4 26/53/4 29/62/4 30/63/4
f 28/64/19 29/62/19 26/53/19
f 27/65/20 25/54/20 30/63/20
f 23/66/21 33/15/21 31/18/21 21/67/21
f 24/68/22 34/16/22 33/15/22 23/69/22
f 22/70/23 32/17/23 34/16/23 24/71/23
f 21/72/24 31/18/24 32/17/24 22/73/24
f 27/74/1 35/75/1 36/76/1 28/77/1
f 30/63/1 38/78/1 35/75/1 27/74/1
f 29/62/1 37/79/1 38/78/1 30/63/1
f 28/77/1 36/76/1 37/79/1 29/62/1
f 35/80/4 39/1/4 40/6/4 36/81/4
f 38/82/3 42/83/3 39/1/3 35/84/3
f 37/85/2 41/86/2 42/83/2 38/87/2
f 36/88/5 40/6/5 41/86/5 37/89/5
f 41/86/1 45/90/1 46/91/1 42/83/1
f 52/59/1 51/92/1 54/93/1 53/60/1
f 54/93/1 51/92/1 50/94/1
f 40/6/1 44/5/1 45/90/1 41/86/1
f 42/83/1 46/91/1 43/2/1 39/1/1
f 46/95/5 52/59/5 49/61/25 43/96/25
f 43/97/25 49/61/25 53/60/26 47/98/26
f 45/99/4 51/92/4 52/59/4 46/100/4
f 47/101/26 53/60/26 54/93/27 48/102/27
f 48/103/27 54/93/27 50/94/28 44/104/28
f 44/105/28 50/94/28 51/92/3 45/106/3
f 65/107/2 66/108/2 64/109/2 63/110/2
f 67/111/3 68/112/3 66/113/3 65/107/3
f 69/114/4 70/115/4 68/116/4 67/111/4
f 63/110/5 64/117/5 70/118/5 69/114/5
f 67/111/1 65/107/1 63/110/1 69/114/1
f 73/119/2 74/120/2 72/121/2 71/122/2
f 75/123/3 76/124/3 74/125/3 73/119/3
f 77/126/4 78/127/4 76/128/4 75/123/4
f 71/122/5 72/129/5 78/130/5 77/126/5
f 75/123/1 73/119/1 71/122/1 77/126/1
f 81/131/2 82/132/2 80/133/2 79/134/2
f 83/135/3 84/136/3 82/137/3 81/131/3
f 85/138/4 86/139/4 84/140/4 83/135/4
f 79/134/5 80/141/5 86/142/5 85/138/5
f 83/135/1 81/131/1 79/134/1 85/138/1
f 109/143/29 108/144/29 107/145/29 104/146/29
f 104/146/4 103/147/4 110/148/4 109/143/4
f 106/149/30 110/148/30 103/147/30 105/150/30
f 108/151/3 109/143/3 110/148/3 106/152/3
f 108/151/3 106/152/3 102/153/3 101/154/3
f 102/155/6 106/149/6 105/150/6 100/156/6
f 108/144/1 101/157/1 99/158/1 107/145/1
f 107/159/5 99/160/5 100/161/5 105/162/5
f 105/162/5 103/147/5 104/146/5 107/159/5
f 137/163/31 116/164/32 114/165/3 136/166/3
f 117/167/33 118/168/34 116/164/32 137/163/31
f 116/169/6 112/170/6 114/171/6
f 132/172/6 112/170/6 130/173/6
f 119/174/4 120/175/4 118/168/34 117/167/33
f 118/176/6 112/170/6 116/169/6
f 121/177/35 122/178/36 120/179/4 119/180/4
f 113/181/37 124/182/38 122/178/36 121/177/35
f 120/183/6 112/170/6 118/176/6
f 134/184/6 112/170/6 132/172/6
f 125/185/5 126/186/5 124/182/38 113/181/37
f 122/187/6 112/170/6 120/183/6
f 127/188/39 128/189/39 126/186/5 125/185/5
f 129/190/40 130/191/40 128/189/39 127/188/39
f 124/192/6 112/170/6 122/187/6
f 111/193/6 112/170/6 134/184/6
f 131/194/2 132/195/2 130/191/40 129/190/40
f 126/196/6 112/170/6 124/192/6
f 133/197/41 134/198/41 132/195/2 131/194/2
f 135/199/42 111/200/42 134/198/41 133/197/41
f 128/201/6 112/170/6 126/196/6
f 114/171/6 112/170/6 111/193/6
f 117/167/33 137/163/31 115/202/43
f 130/173/6 112/170/6 128/201/6
f 136/166/3 114/165/3 111/200/42 135/199/42
f 123/203/44 113/181/37 121/177/35
f 123/204/1 121/205/1 117/206/1 115/207/1
f 119/208/1 117/206/1 121/205/1
f 140/209/45 141/210/46 139/211/46 138/212/45
f 142/213/47 154/214/48 155/215/49 143/216/50
f 156/217/51 157/218/52 155/215/49 154/214/48
f 140/209/3 147/219/3 162/220/3 163/221/3
f 163/222/3 164/223/3 141/210/3 140/209/3
f 143/224/6 155/215/6 157/218/6 145/225/6
f 154/214/48 158/226/53 159/227/54 156/217/51
f 141/210/6 164/228/6 166/229/6 139/211/6
f 138/212/45 146/230/55 147/219/55 140/209/45
f 144/231/56 156/217/51 159/227/54 149/232/57
f 158/226/53 160/233/58 161/234/59 159/227/54
f 145/235/60 157/218/52 156/217/51 144/231/56
f 146/230/55 150/236/61 151/237/61 147/219/55
f 165/238/5 169/239/5 146/230/5 138/212/5
f 138/212/5 139/211/5 166/240/5 165/241/5
f 152/242/62 160/233/58 158/226/53 148/243/63
f 147/219/3 151/237/3 167/244/3 162/245/3
f 169/246/5 168/247/5 150/236/5 146/230/5
f 149/232/57 159/227/54 161/234/59 153/248/64
f 148/243/63 158/226/53 154/214/48 142/213/47
f 143/249/3 164/250/3 163/251/3 142/252/3
f 144/253/5 165/254/5 166/255/5 145/256/5
f 145/257/6 166/258/6 164/259/6 143/260/6
f 153/261/5 168/262/5 169/263/5 149/264/5
f 142/252/3 163/251/3 162/265/3 148/266/3
f 149/264/5 169/263/5 165/254/5 144/253/5
f 148/266/3 162/265/3 167/267/3 152/268/3
f 172/269/2 173/270/2 171/271/2 170/272/2
f 174/273/65 175/274/65 173/270/65 172/275/65
f 176/276/4 177/277/4 175/274/4 174/278/4
f 170/279/66 171/271/66 177/277/66 176/280/66
f 173/270/6 175/274/6 177/277/6 171/271/6
f 174/281/1 172/282/1 170/283/1 176/284/1
f 182/285/67 178/286/67 180/287/67
f 179/288/68 183/289/68 181/290/68
f 180/287/4 181/290/4 183/291/4 182/292/4
f 178/286/5 179/288/5 181/290/5 180/287/5
f 186/293/2 187/294/2 185/295/2 184/296/2
f 188/297/3 189/298/3 187/294/3 186/293/3
f 188/299/1 186/293/1 184/296/1 190/300/1
f 184/296/5 185/295/5 191/301/5 190/302/5
f 187/294/6 189/303/6 191/304/6 185/295/6
usemtl Monitor_01_Decals
f 56/305/4 58/306/4 57/307/4 55/308/4
f 60/309/2 62/310/2 61/311/2 59/312/2
f 87/313/1 88/314/1 90/315/1 89/316/1
f 91/317/5 92/318/5 94/319/5 93/320/5
f 95/321/5 96/322/5 98/323/5 97/324/5
f 192/325/1 193/326/1 195/327/1 194/328/1
f 196/329/1 197/330/1 199/331/1 198/332/1
f 200/333/1 201/334/1 203/335/1 202/336/1
f 204/337/5 205/338/5 207/339/5 206/340/5
f 208/341/5 209/342/5 211/343/5 210/344/5
f 212/345/5 213/346/5 215/347/5 214/348/5
